<svg xmlns="http://www.w3.org/2000/svg" width="172.25" height="85.675" viewBox="0 0 172.25 85.675">
  <g id="door-copy3" transform="translate(-1 -6.58)">
    <path id="패스_149907" data-name="패스 149907" d="M49.69,124.65l2.008.621-2.008.618v1.52h5.053v-1.52H52.806l1.937-.612-1.949-.627H55.45v-1.52H49.69Z" transform="translate(-33.652 -80.201)" fill="#07ff00"/>
    <path id="패스_149908" data-name="패스 149908" d="M304.539,155.72a.534.534,0,0,0-.476.306,1.826,1.826,0,0,0-.173.9,1.757,1.757,0,0,0,.173.877.532.532,0,0,0,.951,0,1.739,1.739,0,0,0,.173-.877,1.878,1.878,0,0,0-.173-.9.529.529,0,0,0-.479-.306Z" transform="translate(-207.671 -102.637)" fill="#07ff00"/>
    <path id="패스_149912" data-name="패스 149912" d="M363.252,155.18a.373.373,0,0,0-.275.111.756.756,0,0,0-.182.337,1.979,1.979,0,0,0-.065.547,1.634,1.634,0,0,0,.142.766.412.412,0,0,0,.766,0,1.643,1.643,0,0,0,.139-.757,1.615,1.615,0,0,0-.139-.751.418.418,0,0,0-.383-.256Z" transform="translate(-248.017 -102.267)" fill="#07ff00"/>
    <g id="그룹_19862" data-name="그룹 19862" transform="translate(112.993 59.03)">
      <path id="패스_149909" data-name="패스 149909" d="M329.7,174.88h-.287v1.436h.3a.635.635,0,0,0,.479-.167.79.79,0,0,0,.161-.55.775.775,0,0,0-.161-.55.644.644,0,0,0-.482-.17Z" transform="translate(-329.41 -174.858)" fill="#07ff00"/>
      <path id="패스_149910" data-name="패스 149910" d="M339.879,175.25l-.269.862h.562l-.272-.862Z" transform="translate(-336.46 -175.114)" fill="#07ff00"/>
      <path id="패스_149911" data-name="패스 149911" d="M406.3,175.25l-.272.862h.562l-.272-.862Z" transform="translate(-382.365 -175.114)" fill="#07ff00"/>
      <path id="패스_149913" data-name="패스 149913" d="M415.42,174.81h-.3v.667h.3c.272,0,.408-.108.408-.327a.3.3,0,0,0-.1-.253.472.472,0,0,0-.3-.083Z" transform="translate(-388.648 -174.81)" fill="#07ff00"/>
    </g>
    <rect id="사각형_4558" data-name="사각형 4558" width="0.843" height="2.011" transform="translate(106.374 52.913)" fill="#07ff00"/>
    <path id="패스_149914" data-name="패스 149914" d="M54.751,97.306a2.7,2.7,0,0,0-.074-.661,1.972,1.972,0,0,0-.182-.485,1.084,1.084,0,0,0-.287-.33,1.53,1.53,0,0,0-.738-.334,2.694,2.694,0,0,0-.4-.049c-.114-.006-.244-.006-.392-.006h-.9c-.148,0-.281,0-.392.006a3.193,3.193,0,0,0-.4.049,1.734,1.734,0,0,0-.392.117,1.648,1.648,0,0,0-.343.216,1.174,1.174,0,0,0-.287.33,1.79,1.79,0,0,0-.182.485,3.049,3.049,0,0,0-.08.661v1.9h5.056l-.006-1.9Zm-1.331.278a.748.748,0,0,1-.015.074h-2.4l-.015-.173a.765.765,0,0,1,.037-.34.214.214,0,0,1,.21-.173h1.952a.209.209,0,0,1,.17.074.31.31,0,0,1,.071.167,1.1,1.1,0,0,1,0,.2c-.006.077-.009.13-.015.161Z" transform="translate(-33.666 -61.148)" fill="#07ff00"/>
    <rect id="사각형_4559" data-name="사각형 4559" width="5.056" height="1.52" transform="translate(16.038 31.906)" fill="#07ff00"/>
    <path id="패스_149915" data-name="패스 149915" d="M54.743,110.31h-1.31v1.541h-.67v-1.18H51.67v1.18h-.655V110.31H49.69v3.061h5.053Z" transform="translate(-33.652 -71.384)" fill="#07ff00"/>
    <path id="패스_149916" data-name="패스 149916" d="M54.766,75.31l-.7-.1v-.584l.7-.093V73.12L49.71,74.158v1.526l5.056,1.109Zm-1.634-.238-1.245-.167,1.245-.151Z" transform="translate(-33.666 -45.789)" fill="#07ff00"/>
    <path id="패스_149918" data-name="패스 149918" d="M1,15.667,9,64.131l25.7,1.319,8.229,26.805L47.09,66.085l105.324,5.4L173.25,6.58ZM112.174,34.595c0-.873.013-1.6.038-2.173a17.207,17.207,0,0,1,.251-2.1,8.139,8.139,0,0,1,.6-2.061,8.824,8.824,0,0,1,1.135-1.761,5.608,5.608,0,0,1,1.789-1.481,10.851,10.851,0,0,1,2.615-.9,16.531,16.531,0,0,1,3.615-.355,18.429,18.429,0,0,1,3.52.374,10.384,10.384,0,0,1,2.6.879,5.962,5.962,0,0,1,1.788,1.425,8.628,8.628,0,0,1,1.154,1.686,7.761,7.761,0,0,1,.635,1.967,14.081,14.081,0,0,1,.27,2c.025.561.038,1.231.038,2l-8.232-.037V32.048a1.275,1.275,0,0,0-.6-1.013,2.053,2.053,0,0,0-1.251-.449,1.975,1.975,0,0,0-1.232.449,1.283,1.283,0,0,0-.578,1.013v9.7a1.284,1.284,0,0,0,.578,1.013,1.969,1.969,0,0,0,1.232.449,2.053,2.053,0,0,0,1.251-.449,1.274,1.274,0,0,0,.6-1.013v-2.1l8.232.037c0,.6-.006,1.125-.019,1.574a15.023,15.023,0,0,1-.135,1.556,9.57,9.57,0,0,1-.327,1.574,10.55,10.55,0,0,1-.578,1.462,6.081,6.081,0,0,1-.864,1.35,7.675,7.675,0,0,1-1.27,1.144,6.739,6.739,0,0,1-1.732.9,14.307,14.307,0,0,1-2.251.561,18.266,18.266,0,0,1-6.441-.131,10.664,10.664,0,0,1-2.615-.9,5.673,5.673,0,0,1-1.789-1.462,8.172,8.172,0,0,1-1.135-1.761,8.459,8.459,0,0,1-.6-2.079,17.2,17.2,0,0,1-.251-2.1c-.025-.574-.038-1.287-.038-2.135V34.6Zm15.861,18.3v-.589h3.426v.539c0,.305-.006.561-.016.77s-.028.446-.06.714a8.529,8.529,0,0,1-.154.888l-.739-.065a8.109,8.109,0,0,0,.179-1l-2.7.128-.094-.589,2.832-.094c.006-.162.009-.4.009-.7h-2.694Zm3.841,2.587v.6H127.55v-.6Zm-4.457-3.572v4.707H126.7V51.911Zm-4.529,1.446v.589h-3.335v-1.83h.745v1.241Zm-6.425.81a2.088,2.088,0,0,1-.2.767,1.265,1.265,0,0,1-.431.5,1.037,1.037,0,0,1-.594.175,1.064,1.064,0,0,1-.648-.209,1.36,1.36,0,0,1-.443-.592,2.377,2.377,0,0,1-.157-.9,2.24,2.24,0,0,1,.16-.885,1.35,1.35,0,0,1,.443-.589,1.112,1.112,0,0,1,1.223-.044,1.267,1.267,0,0,1,.427.468,1.9,1.9,0,0,1,.217.717h.748V51.908h.736v4.716h-.736v-2.46h-.739Zm-2.82-2.257v4.716H112.9V51.911ZM95.48,50.044V31.914l8.1-.037v1.983h6.33v6.094h-6.331v3.139h8.251v6.951H95.48Zm12.469,2.282v3.189h-2.326V52.326ZM35.183,50.119h-8.1l-4.03-10.505V50.119h-8.1V23.878h8.1l4.03,10.505V23.8H50.226l1.88,6.842-16.926.037V50.122Zm17.769-.075H36.641V31.914l8.1-.037v1.983h6.293v6.094H44.738v3.139h8.213v6.951Zm26.218,0h-8.1L69.039,38.569l-2,11.475h-8.1L51.732,23.8h8.1l3.184,10.505L66.16,23.8h5.8L75.1,34.308l3.876-14.542h8.1l-.7,2.684H78.9v9.732h4.938L79.17,50.044Zm1.113-19.215V23.8h31.354v7.026H94.021V50.044h-8.1V30.829H80.282Zm29.752,30.15h-.559V59.474h-.019l-.594,1.493H108.5l-.594-1.5h-.019v1.512h-.559V58.557h.71l.632,1.524h.028l.632-1.524h.71v2.422Zm1.858,0H110.2V58.557h1.691v.464h-1.116v.511H111.8V60h-1.028v.514h1.119v.464ZM114,60.415a1,1,0,0,1-.418.418,1.35,1.35,0,0,1-.641.147h-.893V58.557h.893a1.332,1.332,0,0,1,.641.143,1,1,0,0,1,.418.418,1.526,1.526,0,0,1,0,1.3Zm.852.564h-.572V58.557h.572Zm1.851,0-.167-.517h-.849l-.167.517H114.9l.83-2.422h.764l.827,2.422h-.616Zm-7.319-4.352h-.748V51.911h.748Zm10.625,4.352h-.49l-.993-1.421h-.016v1.421h-.572V58.557h.5l.981,1.421h.019V58.557h.572v2.422Zm-9.5-5.461h-.572v-3.2h2.317v.6h-1.578V54.9c.44,0,.8-.009,1.069-.028a6.4,6.4,0,0,0,.811-.1l.066.6a6.139,6.139,0,0,1-.886.115c-.308.019-.72.028-1.229.028Zm11.354,5.461h-1.694V58.557h1.691v.464H120.75v.511h1.028V60H120.75v.514h1.119v.464Zm5.469-1.958H126.6v1.958h-.569V59.022h-.742v-.3l-.66,2.257h-.553l-.446-1.493h-.019l-.446,1.493H122.6l-.7-2.422h.635l.374,1.605h.019l.424-1.605h.522l.427,1.609h.016l.377-1.609h2.64v.464Zm1.773,1.958h-1.694V58.557h1.691v.464h-1.116v.511h1.028V60h-1.028v.514h1.119v.464Zm-8.368-4.364H120v-1.6h-.962v-.589h4.325v.589h-.952v1.6h-.754v-1.6h-.915v1.6Zm9.151,3.56a.522.522,0,0,0,.2.249.556.556,0,0,0,.308.084.523.523,0,0,0,.327-.1.428.428,0,0,0,.163-.277h.582a.943.943,0,0,1-.157.427,1,1,0,0,1-.371.327,1.153,1.153,0,0,1-.55.125,1.2,1.2,0,0,1-.594-.147,1.017,1.017,0,0,1-.409-.427,1.436,1.436,0,0,1-.148-.67,1.4,1.4,0,0,1,.151-.67,1.043,1.043,0,0,1,.412-.427,1.194,1.194,0,0,1,.591-.147,1.258,1.258,0,0,1,.528.106.9.9,0,0,1,.377.312,1.03,1.03,0,0,1,.176.486H130.9a.45.45,0,0,0-.154-.3.486.486,0,0,0-.333-.106.526.526,0,0,0-.308.087.555.555,0,0,0-.2.256,1.036,1.036,0,0,0-.069.4,1.069,1.069,0,0,0,.069.408Zm3.832.8h-.572V60h-.981v.979H131.6V58.557h.572v.976h.981v-.976h.572Zm-9.022-5.39c-.233.012-.553.019-.956.022h-.327V52.419H125.2V53h-1.069v.683h.893v.558h-.893v.779c.242-.006.456-.016.648-.028s.383-.037.585-.069l.063.589a5.92,5.92,0,0,1-.72.081Zm.528-1.4v-.583h.481V51.983h.688v4.43h-.688V54.193h-.481Zm9.8,6.786h-.572V58.554h1.656v.464h-1.084v.511H136v.464h-.974v.979Zm2.555,0-.167-.517h-.849l-.167.517h-.619l.83-2.422h.764l.827,2.422h-.616Zm1.245,0h-.572V58.554h.572Zm1.506,0-.449-.832h-.321v.832h-.572V58.554h1a1.074,1.074,0,0,1,.475.1.706.706,0,0,1,.308.281.814.814,0,0,1,.107.427.8.8,0,0,1-.107.424.679.679,0,0,1-.314.268l.512.926h-.632Zm-7.539-8.532h1.766v.589h-1.018v1.923q.325,0,.622-.028a5.929,5.929,0,0,0,.6-.078l.05.6a6.375,6.375,0,0,1-.786.1c-.255.016-.556.025-.9.028h-.343V52.441Zm3.291,1.256V51.9h.7v4.707h-.7V54.283H135.7v2.1h-.676V51.977h.676V53.7h.383Zm1.012-.9v-.589h2.574V52.8h-.905v.016a1.433,1.433,0,0,0,.11.546,1.3,1.3,0,0,0,.349.48,1.637,1.637,0,0,0,.607.33l-.361.583a1.869,1.869,0,0,1-.648-.349,1.755,1.755,0,0,1-.427-.542,1.887,1.887,0,0,1-.443.6,1.808,1.808,0,0,1-.682.377l-.383-.6a1.658,1.658,0,0,0,.638-.34,1.4,1.4,0,0,0,.365-.5,1.626,1.626,0,0,0,.116-.589V52.8H137.1Zm3.96,3.148v.589h-3.288V55.041h.745v.9h2.543Zm-.11-.6h-.739V53.694h-.714v-.6h.714V51.908h.739v3.429Zm3.555-1.714V39.72h-3.376V50h-8.1V23.765h8.1V34.046H144.5V23.765h8.135v29.9l-8.135-.037Z" transform="translate(0 0)" fill="#07ff00"/>
  </g>
</svg>
